<svg viewBox="90 150 370 390" class="roots-wrapper">
    <svg data-root-id="2274955525390" xmlns="http://www.w3.org/2000/svg" viewBox="74.1999969 84.5100021 276.7999878 256.1799927" height="138.2" width="149.3" y="235.6" x="91.4" preserveAspectRatio="xMinYMin" data-layer-role="icon" style="position: absolute; height: 138.166px; width: 149.287px; top: 218.417px; left: 90px; transform: rotate(0deg)">
        <path class="cls-1" data-layer-id="5145310625390" style="fill: #0; fill-opacity: 1" d="M 257.1 268.2 L 254 296.7 l 37 10.4 l 6.6 -60.9 l -0.3 -0.1 l -36.6 -10.6 l -3.5 32.7 z"/>
        <path class="cls-1" data-layer-id="6259750825390" style="fill: #00000; fill-opacity: 1" d="M 251.5 232.8 l -38.4 -11.1 l -7.4 -2.1 l -11.2 -42.8 l -44.5 11.7 l -4.7 43.5 l -5.6 51.8 l -2.6 23.8 l 102.8 33.1 l 4 -37.2 l 3.3 -30.8 l 4.3 -39.9 z"/>
        <path class="cls-1" data-layer-id="255135825390" style="fill: #0; fill-opacity: 1" d="M 317.9 242.3 L 351 165.2 l -21.3 -42.3 l -31.1 8.3 l -3.9 1 l -13.9 3.7 l 0.1 -0.2 l -27 7 l -25.5 47.8 l -11.9 22.4 l 45.3 13.1 l 9.1 2.6 l 37 10.7 l 10.2 3 z"/>
        <path class="cls-1" data-layer-id="4850766225391" style="fill: #0; fill-opacity: 1" d="M 211 203.1 l 10.6 -19.9 l 22.5 -42.3 l -55.9 -24.6 l 18.8 71.6 l 4 15.1 z"/>
        <path class="cls-1" data-layer-id="6552764825391" style="fill: #0; fill-opacity: 1" d="M 318.7 84.5 l -19.6 36.9 l 27.4 -7.3 l -7.8 -29.6 z"/>
        <path class="cls-1" data-layer-id="162229825391" style="fill: #0; fill-opacity: 1" d="M 74.2 143.1 l 58.7 116.3 l 6.1 -56.5 l -64.8 -59.9 z"/>
    </svg>
        <svg data-root-id="312515225391" xmlns="http://www.w3.org/2000/svg" y="321.1" viewBox="3.0999999 -1.26 218.0799866 41.4499969" x="230.8" height="41.4" width="218.1" data-layer-role="brandName" style="position: absolute; top: 266.775px; width: 218.08px; height: 41.45px; left: 252.208px; transform: rotate(0deg)">
            <path d="M 23.7 39.4 l 6.8 -4.9 h 13 v 4.9 H 23.7 Z M 3.1 20.4 q 0 -3.9 1.5 -7.4 q 1.5 -3.5 4.2 -6.2 q 2.7 -2.7 6.2 -4.3 Q 18.4 1 22.4 1 q 4 0 7.5 1.5 q 3.5 1.6 6.2 4.3 q 2.7 2.7 4.2 6.2 q 1.5 3.5 1.5 7.4 q 0 4 -1.5 7.5 q -1.5 3.5 -4.2 6.2 q -2.7 2.6 -6.2 4.1 q -3.5 1.5 -7.5 1.5 q -4 0 -7.5 -1.5 q -3.5 -1.5 -6.2 -4.1 q -2.7 -2.6 -4.2 -6.1 q -1.5 -3.5 -1.5 -7.7 Z m 5.2 0.1 q 0 3 1.1 5.6 q 1.1 2.6 3 4.6 q 1.9 2 4.5 3.1 q 2.6 1.1 5.6 1.1 q 2.9 0 5.5 -1.1 q 2.6 -1.1 4.5 -3.1 q 1.9 -2 3 -4.6 q 1.1 -2.6 1.1 -5.6 q 0 -2.9 -1.1 -5.6 q -1.1 -2.6 -3 -4.6 q -1.9 -2 -4.5 -3.1 q -2.6 -1.1 -5.5 -1.1 q -3 0 -5.6 1.1 q -2.6 1.1 -4.5 3.1 q -1.9 2 -3 4.6 q -1.1 2.6 -1.1 5.6 Z m 48.8 19.7 q -2.9 0 -4.8 -1.8 q -1.9 -1.8 -2 -4.7 V 17.6 h 4.9 v 14.3 q 0.1 1.8 1 2.9 q 0.9 1.1 2.9 1.1 q 1.8 0 3.3 -1.1 q 1.4 -1.1 2.3 -2.9 q 0.9 -1.9 0.9 -4.2 V 17.6 h 4.9 v 21.7 H 66 L 65.6 34 l 0.3 0.9 q -0.6 1.5 -1.9 2.7 q -1.3 1.2 -3 1.9 q -1.7 0.7 -3.8 0.7 Z m 30.3 -0.3 q -3 0 -5.5 -1.3 t -3.9 -3.9 q -1.4 -2.5 -1.4 -6.2 q 0 -3.6 1.5 -6.3 q 1.5 -2.6 4.1 -4.1 q 2.5 -1.4 5.6 -1.4 q 3 0 5.2 1.4 q 2.1 1.4 3.2 3.3 l -0.3 0.8 l 0.5 -4.6 h 4.5 v 21.7 H 95.8 v -5.7 l 0.5 1.3 q -0.2 0.5 -0.9 1.3 q -0.7 0.8 -1.9 1.6 q -1.2 0.8 -2.7 1.4 q -1.5 0.6 -3.4 0.6 Z m 1.3 -4 q 1.8 0 3.3 -0.7 t 2.4 -1.9 q 1 -1.2 1.3 -3 v -4.3 q -0.4 -1.6 -1.5 -2.8 t -2.5 -1.8 q -1.5 -0.7 -3.3 -0.7 q -1.9 0 -3.6 0.9 t -2.6 2.6 q -1 1.7 -1 3.9 q 0 2.1 1 3.8 t 2.7 2.7 q 1.7 1 3.6 1 Z m 19.9 -18.2 h 4.3 l 0.4 5.3 l -0.2 -0.8 q 1.1 -2.4 3.4 -3.9 q 2.4 -1.4 5.5 -1.4 q 3.1 0 5.1 1.8 q 2 1.8 2 4.7 v 16.1 h -4.9 V 25 q -0.1 -1.8 -1 -2.9 q -1 -1.1 -3 -1.1 q -1.9 0 -3.4 1.1 q -1.5 1.1 -2.4 2.9 q -0.9 1.8 -0.9 4.3 v 10.2 h -4.9 V 17.6 Z m 43.6 16.6 l 2.5 3.1 q -1.5 1.2 -3.5 1.8 q -2 0.7 -4.1 0.7 q -3.6 0 -6.2 -1.4 q -2.7 -1.4 -4.2 -4 q -1.5 -2.5 -1.5 -6 q 0 -3.5 1.6 -6 t 4.2 -4 q 2.6 -1.4 5.6 -1.4 q 2.6 0 4.7 0.7 q 2.1 0.7 3.5 2 l -2.4 3.1 q -0.9 -0.7 -2.3 -1.3 q -1.4 -0.6 -3.1 -0.6 q -1.9 0 -3.5 1 q -1.6 1 -2.5 2.6 q -0.9 1.7 -0.9 3.8 q 0 2 0.9 3.7 q 0.9 1.7 2.6 2.7 q 1.7 1 3.8 1 q 1.4 0 2.6 -0.4 q 1.2 -0.4 2.1 -1.1 Z m 8.3 5.1 V 17.6 h 4.9 v 21.7 h -4.9 Z m -0.4 -29.6 q 0 -1.2 0.9 -1.9 q 0.9 -0.8 2 -0.8 t 2 0.8 q 0.9 0.8 0.9 1.9 q 0 1.2 -0.9 2 q -0.9 0.8 -2 0.8 t -2 -0.8 q -0.9 -0.8 -0.9 -1.9 Z m 13.2 29.6 V -1.3 h 4.9 v 40.6 h -4.9 Z m 12.8 0 V -1.3 h 4.9 v 40.6 h -4.9 Z m 21.8 0.5 q -3 0 -5.5 -1.3 q -2.5 -1.3 -3.9 -3.9 q -1.4 -2.5 -1.4 -6.2 q 0 -3.6 1.5 -6.3 q 1.5 -2.6 4.1 -4.1 q 2.5 -1.4 5.6 -1.4 t 5.1 1.4 q 2.1 1.4 3.2 3.3 l -0.3 0.8 l 0.5 -4.6 h 4.5 v 21.7 h -4.9 v -5.7 l 0.5 1.3 q -0.2 0.5 -0.9 1.3 q -0.7 0.8 -1.9 1.6 q -1.2 0.8 -2.7 1.4 q -1.5 0.6 -3.4 0.6 Z m 1.3 -4 q 1.8 0 3.3 -0.7 q 1.5 -0.7 2.4 -1.9 q 1 -1.2 1.3 -3 v -4.3 q -0.4 -1.6 -1.5 -2.8 t -2.5 -1.8 q -1.5 -0.7 -3.3 -0.7 q -1.9 0 -3.6 0.9 q -1.6 0.9 -2.6 2.6 q -1 1.7 -1 3.9 q 0 2.1 1 3.8 q 1 1.7 2.7 2.7 q 1.7 1 3.6 1 Z" 
            data-horizontal-grow="left" style="fill: #0; fill-opacity: 1"/></svg></svg>