<svg viewBox="0 75 310 410" class="roots-wrapper">
    <svg data-root-id="2274955525390" xmlns="http://www.w3.org/2000/svg" viewBox="64.1999969 84.5100021 286.7999878 256.1799927" height="357.2" width="316.3" y="148.6" x="-9.6" preserveAspectRatio="xMinYMin" data-layer-role="icon" style="position: absolute; height: 138.166px; width: 149.287px; top: 218.417px; left: 90px; transform: rotate(0deg)">
        <path class="cls-1" data-layer-id="5145310625390" style="fill: #0; fill-opacity: 1" d="M 257.1 268.2 L 254 296.7 l 37 10.4 l 6.6 -60.9 l -0.3 -0.1 l -36.6 -10.6 l -3.5 32.7 z"/>
        <path class="cls-1" data-layer-id="6259750825390" style="fill: #00000; fill-opacity: 1" d="M 251.5 232.8 l -38.4 -11.1 l -7.4 -2.1 l -11.2 -42.8 l -44.5 11.7 l -4.7 43.5 l -5.6 51.8 l -2.6 23.8 l 102.8 33.1 l 4 -37.2 l 3.3 -30.8 l 4.3 -39.9 z"/>
        <path class="cls-1" data-layer-id="255135825390" style="fill: #0; fill-opacity: 1" d="M 317.9 242.3 L 351 165.2 l -21.3 -42.3 l -31.1 8.3 l -3.9 1 l -13.9 3.7 l 0.1 -0.2 l -27 7 l -25.5 47.8 l -11.9 22.4 l 45.3 13.1 l 9.1 2.6 l 37 10.7 l 10.2 3 z"/>
        <path class="cls-1" data-layer-id="4850766225391" style="fill: #0; fill-opacity: 1" d="M 211 203.1 l 10.6 -19.9 l 22.5 -42.3 l -55.9 -24.6 l 18.8 71.6 l 4 15.1 z"/>
        <path class="cls-1" data-layer-id="6552764825391" style="fill: #0; fill-opacity: 1" d="M 318.7 84.5 l -19.6 36.9 l 27.4 -7.3 l -7.8 -29.6 z"/>
        <path class="cls-1" data-layer-id="162229825391" style="fill: #0; fill-opacity: 1" d="M 74.2 143.1 l 58.7 116.3 l 6.1 -56.5 l -64.8 -59.9 z"/>
    </svg>
</svg>
